<?xml version="1.0" encoding="UTF-8"?>
<svg id="Layer_2" data-name="Layer 2" xmlns="http://www.w3.org/2000/svg" viewBox="0 0 1597.06 225.99">
  <defs>
    <style>
      .cls-1 {
        fill: #ec5c36;
        stroke-width: 0px;
      }
    </style>
  </defs>
  <g id="Layer_1-2" data-name="Layer 1">
    <g>
      <path class="cls-1" d="m146.08,159.3c0,31.1-24.8,62.94-62.94,62.94H0V.15h79.81c33.38,1.37,55.75,29.45,55.75,58.22,0,26.83-18.17,42.6-22.14,45.75,16.43,9.02,32.66,28.8,32.66,55.19ZM23.84,96.37l54.59.02c18.48-.62,33.3-17.4,33.3-38s-15.06-37.65-33.77-38H23.84v75.98Zm98.39,62.94c0-23.4-17.23-42.39-38.59-42.68H23.84v85.37h59.55c21.47-.14,38.84-19.2,38.84-42.68Z"/>
      <path class="cls-1" d="m294.91,56.53v22.61c-1.89-.24-3.88-.53-5.9-.76-47.32-5.42-79.87,13.85-79.87,50.57v93.21h-23.84V58.48h23.84v22.3c16.31-20.85,46.79-30.75,85.78-24.25Z"/>
      <path class="cls-1" d="m442.03,201.82v20.25h-21.72c-13.33,0-19.68-10.53-19.68-20.67-4.48,9.76-21.52,24.59-41.78,24.59-39.91.29-60.93-27.86-60.93-54.15,0-30.89,24.15-54.14,61.32-54.14h24.68c9.41,0,16.6-7.36,16.6-14.74,0-.21.11-24.32.11-24.32h-74.95v-20.25h75.2c13.33,0,23.6,10.89,23.6,23.6v119.84h17.56Zm-41.4-69.79c-6.62,2.54-13.95,3.96-21.46,3.96h-23.85c-24.65,0-33.56,16.76-33.56,35.85,0,16.56,11.55,33.9,37.47,33.9,22.03,0,41.39-11.33,41.39-28.02v-45.69Z"/>
      <path class="cls-1" d="m609.04,120.25v101.82h-23.84l.03-103.29c0-22.51-15-44.4-41.96-44.4-22.65,0-41.93,21.85-41.93,44.31v103.39h-23.84V58.39h23.84v22.3c10.92-15.92,28.29-26.21,47.83-26.21,33.37,0,59.87,29.68,59.87,65.77Z"/>
      <path class="cls-1" d="m786.9,0v222.07h-23.84v-21.56c-10.06,14.6-28.93,25.49-46.94,25.49-39.09,0-70.79-36.43-70.79-83.79s31.69-83.79,70.79-83.79c18.01,0,34.45,8.15,46.94,21.57V0h23.84Zm-23.86,142.21c0-39.51-21.01-62.72-46.93-62.72s-46.93,23.42-46.93,62.72,21.01,62.72,46.93,62.72,46.93-23.21,46.93-62.72Z"/>
      <path class="cls-1" d="m935.54,201.86v20.25h-114.44v-20.25h45.69v-123.18h-43.74v-20.25h45.37c12.27,0,22.21,9.94,22.21,22.21v121.22h44.9ZM858.72,14.61c0-8.05,8.78-14.57,19.6-14.57s19.6,6.52,19.6,14.57-8.78,14.57-19.6,14.57-19.6-6.52-19.6-14.57Z"/>
      <path class="cls-1" d="m1025.9,115.65v86.22h62.58v20.25h-64.21c-12.26,0-22.21-9.94-22.21-22.21v-82.3c0-15.14,10.46-24.42,23.84-30.1,16.61-7.05,37.7-8.55,48.9-8.82h-125.2v-20.25h52.47V.05h23.84v58.39h62.58v20.25h-5.88s-56.7.04-56.7,36.96Z"/>
      <path class="cls-1" d="m1264.28,145.4h-125.41c1.76,30.08,18.82,60.07,50.62,60.07,23.8,0,39.35-16.8,46.4-37.86h24.62c-9.98,33.93-38,58.37-71.02,58.37-41.38,0-74.92-38.4-74.92-85.77s33.54-85.78,74.92-85.78c43.82,0,77.35,42.25,74.78,90.97Zm-25.29-20.25c-4.56-26.44-21.23-50.2-49.49-50.2s-44.92,23.76-49.49,50.2h98.98Z"/>
      <path class="cls-1" d="m1441.72,163.94c-8.99,35.82-37.83,62.03-72.02,62.03-41.38,0-74.92-38.4-74.92-85.77s33.54-85.78,74.92-85.78c33.37,0,61.63,24.96,71.33,59.46h-24.59c-6.89-21.57-22.58-38.94-46.75-38.94-33.57,0-50.78,33.54-50.78,65.26s17.14,65.26,50.78,65.26c25.17,0,41.11-18.78,47.54-41.52h24.48Z"/>
      <path class="cls-1" d="m1534.49,78.69v123.18h62.58v20.25h-64.21c-12.26,0-22.21-9.94-22.21-22.21v-121.22h-52.47v-20.25h52.47V.05h23.84v58.39h62.58v20.25h-62.58Z"/>
    </g>
  </g>
</svg>